<?xml version="1.0" encoding="UTF-8"?>
<svg xmlns="http://www.w3.org/2000/svg" xmlns:xlink="http://www.w3.org/1999/xlink" viewBox="0 0 200 200" width="200" height="200">
  <defs>
    <g id="Octopus_base_character">
      <!-- Body -->
      <ellipse cx="100" cy="70" rx="40" ry="30" fill="#6A5ACD" stroke="#556B2F" stroke-width="2"/>
      <!-- Eyes -->
      <circle cx="85" cy="60" r="5" fill="#FFFFFF"/>
      <circle cx="115" cy="60" r="5" fill="#FFFFFF"/>
      <circle cx="85" cy="60" r="3" fill="#000000"/>
      <circle cx="115" cy="60" r="3" fill="#000000"/>
      <!-- Tentacles -->
      <path d="M70 100 C 60 130, 50 140, 60 160" fill="none" stroke="#6A5ACD" stroke-width="5">
        <animateTransform attributeName="transform" type="rotate" values="0 70 130; 10 70 130; 0 70 130" dur="1s" repeatCount="indefinite"/>
      </path>
      <path d="M80 100 C 70 130, 60 140, 70 160" fill="none" stroke="#6A5ACD" stroke-width="5">
        <animateTransform attributeName="transform" type="rotate" values="0 80 130; -10 80 130; 0 80 130" dur="1s" repeatCount="indefinite"/>
      </path>
      <path d="M90 100 C 80 130, 70 140, 90 170" fill="none" stroke="#6A5ACD" stroke-width="5">
        <animateTransform attributeName="transform" type="rotate" values="0 90 130; 10 90 130; 0 90 130" dur="1s" repeatCount="indefinite"/>
      </path>
      <path d="M110 100 C 120 130, 130 140, 120 160" fill="none" stroke="#6A5ACD" stroke-width="5">
        <animateTransform attributeName="transform" type="rotate" values="0 110 130; -10 110 130; 0 110 130" dur="1s" repeatCount="indefinite"/>
      </path>
      <path d="M120 100 C 130 130, 140 140, 130 160" fill="none" stroke="#6A5ACD" stroke-width="5">
        <animateTransform attributeName="transform" type="rotate" values="0 120 130; 10 120 130; 0 120 130" dur="1s" repeatCount="indefinite"/>
      </path>
      <path d="M130 100 C 140 130, 150 140, 130 170" fill="none" stroke="#6A5ACD" stroke-width="5">
        <animateTransform attributeName="transform" type="rotate" values="0 130 130; -10 130 130; 0 130 130" dur="1s" repeatCount="indefinite"/>
      </path>
    </g>
  </defs>
  <use xlink:href="#Octopus_base_character">
    <animateTransform attributeName="transform" type="translate" values="0 0; 0 10; 0 0" dur="1s" repeatCount="indefinite"/>
  </use>
</svg>