<?xml version="1.0" encoding="UTF-8"?>
<svg xmlns="http://www.w3.org/2000/svg" xmlns:xlink="http://www.w3.org/1999/xlink" viewBox="0 0 200 200" width="200" height="200">
  <defs>
    <g id="Owl_base_character">
      <!-- Body -->
      <ellipse cx="100" cy="130" rx="50" ry="60" fill="brown" />
      <!-- Feathers Pattern -->
      <path d="M50,130 Q100,70 150,130" fill="none" stroke="saddlebrown" stroke-width="2" />
      <path d="M60,140 Q100,80 140,140" fill="none" stroke="sienna" stroke-width="2" />
      <path d="M70,150 Q100,90 130,150" fill="none" stroke="peru" stroke-width="2" />
      <!-- Head -->
      <circle cx="100" cy="70" r="40" fill="brown" />
      <!-- Eyes -->
      <circle cx="80" cy="60" r="10" fill="white" />
      <circle cx="120" cy="60" r="10" fill="white" />
      <circle cx="80" cy="60" r="5" fill="black" />
      <circle cx="120" cy="60" r="5" fill="black" />
      <!-- Beak -->
      <polygon points="100,80 95,90 105,90" fill="orange" />
      <!-- Feathery Tufts -->
      <path d="M70,40 Q80,30 90,40" fill="brown" />
      <path d="M130,40 Q120,30 110,40" fill="brown" />
      <!-- Wings -->
      <path d="M50,130 Q30,110 50,90" fill="brown" />
      <path d="M150,130 Q170,110 150,90" fill="brown" />
      <!-- Feet -->
      <line x1="85" y1="190" x2="85" y2="170" stroke="orange" stroke-width="4" />
      <line x1="115" y1="190" x2="115" y2="170" stroke="orange" stroke-width="4" />
    </g>
  </defs>
  <use xlink:href="#Owl_base_character">
    <animateTransform attributeName="transform" type="translate" values="0 0; 0 5; 0 0" dur="1s" repeatCount="indefinite" />
  </use>
</svg>