<?xml version="1.0" encoding="UTF-8"?>
<svg width="200" height="200" viewBox="0 0 200 200" xmlns="http://www.w3.org/2000/svg" xmlns:xlink="http://www.w3.org/1999/xlink">
  <defs>
    <g id="ollie_the_owl_base_character">
      <circle cx="100" cy="160" r="40" fill="brown" stroke="black" stroke-width="2"/>
      <ellipse cx="100" cy="130" rx="50" ry="20" fill="white"/>
      <circle cx="85" cy="125" r="8" fill="gold"/>
      <circle cx="115" cy="125" r="8" fill="gold"/>
      <path d="M70,140 Q100,100 130,140" fill="none" stroke="black" stroke-width="2"/>
      <path d="M60,145 C50,130 70,120 60,110" fill="brown"/>
      <path d="M140,145 C150,130 130,120 140,110" fill="brown"/>
      <path d="M100,99 Q90,75 70,80 Q80,70 100,80 Q120,70 130,80 Q110,75 100,99" fill="brown"/>
      <line x1="50" y1="160" x2="150" y2="160" stroke="black" stroke-width="3"/>
      <polygon points="60,160 50,180 70,180" fill="brown"/>
      <polygon points="140,160 130,180 150,180" fill="brown"/>
    </g>
  </defs>
  <use xlink:href="#ollie_the_owl_base_character"/>
  <animateTransform xlink:href="#ollie_the_owl_base_character" attributeName="transform" type="translate" values="0 0; 0 10; 0 0" dur="1s" repeatCount="indefinite"/>
  <animate attributeName="d" xlink:href="#ollie_the_owl_base_character path:nth-of-type(1)" values="M70,140 Q100,100 130,140; M70,140 Q100,110 130,140; M70,140 Q100,100 130,140" dur="0.5s" repeatCount="indefinite"/>
</svg>