<?xml version="1.0" encoding="UTF-8"?>
<svg width="200px" height="200px" viewBox="0 0 200 200" xmlns="http://www.w3.org/2000/svg" xmlns:xlink="http://www.w3.org/1999/xlink">
  <defs>
    <g id="Owl_base_character">
      <!-- Body -->
      <ellipse cx="100" cy="130" rx="50" ry="60" fill="#8B4513" stroke="#654321" stroke-width="2" />
      <!-- Head -->
      <circle cx="100" cy="70" r="40" fill="#A0522D" stroke="#654321" stroke-width="2" />
      <!-- Left Eye -->
      <circle cx="85" cy="65" r="10" fill="#FFFFFF" />
      <circle cx="85" cy="65" r="5" fill="#000000" />
      <!-- Right Eye -->
      <circle cx="115" cy="65" r="10" fill="#FFFFFF" />
      <circle cx="115" cy="65" r="5" fill="#000000" />
      <!-- Beak -->
      <polygon points="100,75 95,85 105,85" fill="#FFD700" stroke="#DAA520" stroke-width="1" />
      <!-- Wings -->
      <path d="M50,130 Q40,100 70,110 Q60,140 50,130" fill="#A0522D" stroke="#654321" stroke-width="1" />
      <path d="M150,130 Q160,100 130,110 Q140,140 150,130" fill="#A0522D" stroke="#654321" stroke-width="1" />
      <!-- Talons -->
      <g id="talons">
        <path d="M80,190 L75,170 L85,170 Z" fill="#FFA500" stroke="#FF8C00" stroke-width="1" />
        <path d="M120,190 L115,170 L125,170 Z" fill="#FFA500" stroke="#FF8C00" stroke-width="1" />
      </g>
      <!-- Feathers Detail -->
      <path d="M60,130 Q100,50 140,130" fill="none" stroke="#A0522D" stroke-width="2" />
      <path d="M55,140 Q100,60 145,140" fill="none" stroke="#A0522D" stroke-width="2" />
      <path d="M50,150 Q100,70 150,150" fill="none" stroke="#A0522D" stroke-width="2" />
    </g>
  </defs>
  <use xlink:href="#Owl_base_character">
    <animateTransform attributeName="transform" type="translate" values="0 0; 0 10; 0 0" dur="1s" repeatCount="indefinite" />
  </use>
</svg>