<?xml version="1.0" encoding="UTF-8"?>
<svg width="200" height="200" viewBox="0 0 200 200" xmlns="http://www.w3.org/2000/svg" xmlns:xlink="http://www.w3.org/1999/xlink">
  <defs>
    <g id="Turtle_base_character">
      <!-- Shell -->
      <ellipse cx="100" cy="100" rx="60" ry="40" fill="#4CAF50" stroke="#388E3C" stroke-width="2" />
      <!-- Hexagonal Patterns -->
      <polygon points="100,70 110,80 100,90 90,80" fill="#6D4C41" />
      <polygon points="130,100 140,110 130,120 120,110" fill="#6D4C41" />
      <polygon points="100,130 110,140 100,150 90,140" fill="#6D4C41" />
      <polygon points="70,100 80,110 70,120 60,110" fill="#6D4C41" />
      <!-- Legs -->
      <ellipse cx="70" cy="80" rx="10" ry="15" fill="#388E3C" />
      <ellipse cx="130" cy="80" rx="10" ry="15" fill="#388E3C" />
      <ellipse cx="70" cy="120" rx="10" ry="15" fill="#388E3C" />
      <ellipse cx="130" cy="120" rx="10" ry="15" fill="#388E3C" />
      <!-- Head -->
      <circle cx="160" cy="100" r="15" fill="#4CAF50" stroke="#388E3C" stroke-width="2" />
      <!-- Eyes -->
      <circle cx="155" cy="95" r="3" fill="#000" />
      <circle cx="155" cy="105" r="3" fill="#000" />
      <!-- Mouth -->
      <path d="M152,110 Q155,115 158,110" stroke="#000" stroke-width="1" fill="none" />
    </g>
  </defs>
  <use xlink:href="#Turtle_base_character">
    <animateTransform attributeName="transform" type="translate" values="0 0; 0 10; 0 0" dur="1s" repeatCount="indefinite" />
    <animateTransform attributeName="transform" type="translate" from="0,0" to="100,0" dur="5s" fill="freeze" />
  </use>
</svg>